<svg width="32" height="32" viewBox="0 0 32 32" fill="none" xmlns="http://www.w3.org/2000/svg">
<path d="M17.2505 26.501C17.9406 26.5012 18.5005 27.0608 18.5005 27.751C18.5002 28.441 17.9405 29.0007 17.2505 29.001H14.7505C14.0603 29.001 13.5008 28.4411 13.5005 27.751C13.5005 27.0606 14.0601 26.501 14.7505 26.501H17.2505ZM16.0024 3C17.8713 3 19.3528 3.42291 20.4468 3.91797C22.3438 4.77649 23.3124 6.2968 23.9399 8.23145C24.2759 9.26742 24.6055 10.5763 24.8101 12.124C25.0229 13.7348 25.1296 14.5406 25.2036 14.877C25.2081 14.8975 25.2131 14.9175 25.2173 14.9365C25.2711 15.1813 25.2982 15.3039 25.3335 15.4238C25.3688 15.5437 25.4122 15.6617 25.4995 15.8965C25.5062 15.9146 25.5128 15.9336 25.52 15.9531C25.6399 16.2757 25.9018 16.829 26.4243 17.9355C27.5113 20.2374 27.8376 21.7635 27.1108 23.0186C25.9649 24.9974 22.9566 25 16.9409 25H15.0591C9.04341 25 6.03506 24.9974 4.88916 23.0186C4.16047 21.7601 4.49048 20.2292 5.58447 17.917C6.10339 16.8202 6.36334 16.2718 6.48291 15.9512C6.48981 15.9327 6.49602 15.9147 6.50244 15.8975C6.59182 15.6579 6.63631 15.5374 6.67236 15.415C6.70841 15.2927 6.73669 15.1679 6.7915 14.918C6.79546 14.8999 6.79896 14.8807 6.80322 14.8613C6.87665 14.5266 6.98319 13.7257 7.19482 12.124C7.39934 10.5763 7.72896 9.26742 8.06494 8.23145C8.69243 6.2968 9.66114 4.77647 11.5581 3.91797C12.6521 3.42289 14.1336 3.00001 16.0024 3ZM16.0024 5.5C14.5224 5.50001 13.3905 5.83231 12.5884 6.19531C11.5654 6.6583 10.9472 7.44792 10.4429 9.00293C10.1491 9.90879 9.85605 11.0685 9.67334 12.4512L9.63721 12.7227C9.45803 14.0798 9.34244 14.9561 9.24561 15.3975L9.22803 15.4746C9.18058 15.6918 9.13344 15.9094 9.0708 16.1221C9.00814 16.3347 8.92985 16.543 8.85205 16.751L8.82471 16.8242C8.66697 17.2472 8.36846 17.8785 7.92822 18.8086L7.84424 18.9863C7.32821 20.077 7.09625 20.7773 7.02393 21.2451C6.96613 21.6192 7.02698 21.7214 7.05029 21.7607L7.05225 21.7656C7.07819 21.8104 7.11148 21.8631 7.26611 21.9434C7.46545 22.0467 7.83885 22.1767 8.52002 22.2793C9.9368 22.4926 11.9666 22.5 15.0591 22.5H16.9409C20.0334 22.5 22.0632 22.4926 23.48 22.2793C24.1611 22.1767 24.5345 22.0467 24.7339 21.9434C24.888 21.8634 24.9238 21.8064 24.9497 21.7617C24.973 21.7225 25.0331 21.6201 24.9761 21.248C24.9048 20.7835 24.6757 20.0875 24.1636 19.0029L24.0796 18.8242C23.6362 17.8857 23.3354 17.2488 23.1772 16.8232L23.1489 16.749C23.0726 16.5442 22.9966 16.3382 22.9351 16.1289C22.8736 15.9198 22.8265 15.7057 22.7798 15.4922L22.7622 15.4141C22.6646 14.9704 22.5489 14.0896 22.3687 12.7246L22.3325 12.4512C22.1498 11.0685 21.8558 9.90881 21.562 9.00293C21.0576 7.44788 20.4395 6.65831 19.4165 6.19531C18.6144 5.83232 17.4825 5.5 16.0024 5.5Z" fill="#8D969F"/>
</svg>
