<svg width="32" height="32" viewBox="0 0 32 32" fill="none" xmlns="http://www.w3.org/2000/svg">
<path d="M8.16699 21C8.4001 21 8.63339 21.0105 8.85938 21.0273C9.73097 21.0922 10.1671 21.1242 10.6045 21.5615C11.042 21.9991 11.0748 22.4356 11.1396 23.3076C11.1565 23.5337 11.166 23.7668 11.166 24C11.166 24.2332 11.1565 24.4663 11.1396 24.6924C11.0748 25.5644 11.042 26.0009 10.6045 26.4385C10.1671 26.8758 9.73097 26.9078 8.85938 26.9727C8.63339 26.9895 8.4001 27 8.16699 27C7.93394 27 7.70053 26.9895 7.47461 26.9727C6.60314 26.9078 6.16692 26.8759 5.72949 26.4385C5.29198 26.0009 5.26019 25.5644 5.19531 24.6924C5.17849 24.4663 5.16797 24.2332 5.16797 24C5.16797 23.7668 5.17849 23.5337 5.19531 23.3076C5.26019 22.4356 5.29198 21.9991 5.72949 21.5615C6.16692 21.1241 6.60314 21.0922 7.47461 21.0273C7.70053 21.0105 7.93394 21 8.16699 21ZM16.001 21C16.2341 21 16.4674 21.0105 16.6934 21.0273C17.5649 21.0922 18.0011 21.1242 18.4385 21.5615C18.876 21.9991 18.9088 22.4356 18.9736 23.3076C18.9905 23.5337 19.001 23.7668 19.001 24C19.001 24.2332 18.9905 24.4663 18.9736 24.6924C18.9088 25.5644 18.876 26.0009 18.4385 26.4385C18.0011 26.8758 17.5649 26.9078 16.6934 26.9727C16.4674 26.9895 16.2341 27 16.001 27C15.768 27 15.5345 26.9895 15.3086 26.9727C14.4372 26.9078 14.0009 26.876 13.5635 26.4385C13.126 26.0009 13.0942 25.5644 13.0293 24.6924C13.0125 24.4663 13.002 24.2332 13.002 24C13.002 23.7668 13.0125 23.5337 13.0293 23.3076C13.0942 22.4356 13.126 21.9991 13.5635 21.5615C14.0009 21.124 14.4372 21.0922 15.3086 21.0273C15.5345 21.0105 15.768 21 16.001 21ZM23.998 21C24.2312 21 24.4644 21.0105 24.6904 21.0273C25.562 21.0922 25.9981 21.1241 26.4355 21.5615C26.8731 21.9991 26.9058 22.4356 26.9707 23.3076C26.9875 23.5336 26.9971 23.7668 26.9971 24C26.9971 24.2332 26.9875 24.4664 26.9707 24.6924C26.9058 25.5644 26.8731 26.0009 26.4355 26.4385C25.9981 26.8759 25.562 26.9078 24.6904 26.9727C24.4644 26.9895 24.2312 27 23.998 27C23.7649 27 23.5317 26.9895 23.3057 26.9727C22.4341 26.9078 21.998 26.8759 21.5605 26.4385C21.123 26.0009 21.0903 25.5644 21.0254 24.6924C21.0086 24.4664 20.999 24.2332 20.999 24C20.999 23.7668 21.0086 23.5336 21.0254 23.3076C21.0903 22.4356 21.123 21.9991 21.5605 21.5615C21.998 21.1241 22.4341 21.0922 23.3057 21.0273C23.5317 21.0105 23.7649 21 23.998 21ZM8.00195 13.001C8.23507 13.001 8.46835 13.0115 8.69434 13.0283C9.56601 13.0932 10.002 13.1259 10.4395 13.5635C10.8768 14.001 10.9097 14.4369 10.9746 15.3086C10.9914 15.5346 11.001 15.7679 11.001 16.001C11.001 16.2341 10.9914 16.4674 10.9746 16.6934C10.9097 17.5654 10.877 18.0018 10.4395 18.4395C10.002 18.877 9.56599 18.9097 8.69434 18.9746C8.46835 18.9914 8.23507 19.001 8.00195 19.001C7.76884 19.001 7.53556 18.9914 7.30957 18.9746C6.43792 18.9097 6.00193 18.877 5.56445 18.4395C5.12694 18.0018 5.09418 17.5654 5.0293 16.6934C5.01249 16.4674 5.00293 16.2341 5.00293 16.001C5.00294 15.7679 5.01248 15.5346 5.0293 15.3086C5.09416 14.4368 5.12713 14.001 5.56445 13.5635C6.00194 13.1259 6.43789 13.0932 7.30957 13.0283C7.53556 13.0115 7.76884 13.001 8.00195 13.001ZM23.998 13.001C24.2312 13.001 24.4644 13.0115 24.6904 13.0283C25.5621 13.0932 25.9981 13.1259 26.4355 13.5635C26.8729 14.001 26.9058 14.4369 26.9707 15.3086C26.9875 15.5346 26.9971 15.7679 26.9971 16.001C26.9971 16.2341 26.9875 16.4674 26.9707 16.6934C26.9058 17.5654 26.8731 18.0018 26.4355 18.4395C25.9981 18.877 25.5621 18.9097 24.6904 18.9746C24.4644 18.9914 24.2312 19.001 23.998 19.001C23.7649 19.001 23.5317 18.9914 23.3057 18.9746C22.434 18.9097 21.998 18.877 21.5605 18.4395C21.123 18.0018 21.0903 17.5654 21.0254 16.6934C21.0086 16.4674 20.999 16.2341 20.999 16.001C20.999 15.7679 21.0086 15.5346 21.0254 15.3086C21.0903 14.4368 21.1232 14.001 21.5605 13.5635C21.998 13.1259 22.434 13.0932 23.3057 13.0283C23.5317 13.0115 23.7649 13.001 23.998 13.001ZM16.001 13.0029C16.234 13.0029 16.4675 13.0125 16.6934 13.0293C17.5647 13.0942 18.0002 13.1271 18.4375 13.5645C18.8748 14.0019 18.9078 14.438 18.9727 15.3096C18.9894 15.5353 18.999 15.7681 18.999 16.001C18.999 16.234 18.9895 16.4674 18.9727 16.6934C18.9078 17.565 18.8748 18.001 18.4375 18.4385C18.0003 18.8757 17.5645 18.9078 16.6934 18.9727C16.4675 18.9895 16.234 19 16.001 19C15.7681 19 15.5353 18.9895 15.3096 18.9727C14.4384 18.9078 14.0026 18.8756 13.5654 18.4385C13.1281 18.001 13.0951 17.565 13.0303 16.6934C13.0135 16.4674 13.0029 16.234 13.0029 16.001C13.0029 15.7681 13.0135 15.5353 13.0303 15.3096C13.0951 14.438 13.1281 14.0019 13.5654 13.5645C14.0027 13.1272 14.4383 13.0942 15.3096 13.0293C15.5353 13.0125 15.7681 13.0029 16.001 13.0029ZM8.00098 5C8.23407 5.00001 8.46739 5.01052 8.69336 5.02734C9.56537 5.09226 10.0018 5.12472 10.4395 5.5625C10.8769 6.00022 10.9097 6.43642 10.9746 7.30859C10.9914 7.53462 11.001 7.76782 11.001 8.00098C11.001 8.23426 10.9914 8.46819 10.9746 8.69434C10.9097 9.56643 10.877 10.0027 10.4395 10.4404C10.0018 10.8782 9.56538 10.9107 8.69336 10.9756C8.46739 10.9924 8.23407 11.0029 8.00098 11.0029C7.76775 11.0029 7.53371 10.9924 7.30762 10.9756C6.43588 10.9107 6.00007 10.878 5.5625 10.4404C5.12484 10.0027 5.09224 9.56651 5.02734 8.69434C5.01052 8.46819 5 8.23426 5 8.00098C5.00001 7.76782 5.01053 7.53462 5.02734 7.30859C5.09225 6.43625 5.1248 6.00031 5.5625 5.5625C6.00011 5.12483 6.43581 5.09224 7.30762 5.02734C7.53371 5.01051 7.76775 5 8.00098 5ZM23.999 5C24.2322 5 24.4663 5.01051 24.6924 5.02734C25.5642 5.09224 25.9999 5.12482 26.4375 5.5625C26.8752 6.00031 26.9077 6.43625 26.9727 7.30859C26.9895 7.53462 27 7.76782 27 8.00098C27 8.23426 26.9895 8.46819 26.9727 8.69434C26.9078 9.56651 26.8752 10.0027 26.4375 10.4404C25.9999 10.878 25.5641 10.9107 24.6924 10.9756C24.4663 10.9924 24.2322 11.0029 23.999 11.0029C23.7659 11.0029 23.5326 10.9924 23.3066 10.9756C22.4346 10.9107 21.9982 10.8782 21.5605 10.4404C21.123 10.0027 21.0903 9.56643 21.0254 8.69434C21.0086 8.46819 20.999 8.23426 20.999 8.00098C20.999 7.76782 21.0086 7.53462 21.0254 7.30859C21.0903 6.43642 21.1231 6.00022 21.5605 5.5625C21.9982 5.12472 22.4346 5.09226 23.3066 5.02734C23.5326 5.01052 23.7659 5.00001 23.999 5ZM16.001 5C16.234 5 16.4674 5.01053 16.6934 5.02734C17.5649 5.09222 18.0011 5.12428 18.4385 5.56152C18.876 5.99915 18.9088 6.43562 18.9736 7.30762C18.9905 7.53366 19.001 7.76683 19.001 8C19.001 8.23317 18.9905 8.46634 18.9736 8.69238C18.9088 9.56438 18.876 10.0009 18.4385 10.4385C18.0011 10.8757 17.5649 10.9078 16.6934 10.9727C16.4674 10.9895 16.234 11 16.001 11C15.7681 11 15.5353 10.9895 15.3096 10.9727C14.4381 10.9078 14.0018 10.8757 13.5645 10.4385C13.1269 10.0009 13.0942 9.56438 13.0293 8.69238C13.0125 8.46634 13.002 8.23317 13.002 8C13.002 7.76683 13.0125 7.53366 13.0293 7.30762C13.0942 6.43562 13.1269 5.99915 13.5645 5.56152C14.0018 5.12434 14.4381 5.09222 15.3096 5.02734C15.5353 5.01055 15.7681 5.00001 16.001 5Z" fill="#8D969F"/>
</svg>
